<svg xmlns="http://www.w3.org/2000/svg" width="1600" height="1120" viewBox="0 0 1600 1120">
<defs>
  <pattern id="grid" width="32" height="32" patternUnits="userSpaceOnUse"><path d="M32 0H0V32" fill="none" stroke="#112240" stroke-width="0.7"/></pattern>
  <marker id="arrow-cyan" markerWidth="10" markerHeight="8" refX="8" refY="4" orient="auto"><path d="M0 0L9 4L0 8Z" fill="#00b4d8"/></marker>
  <marker id="arrow-green" markerWidth="10" markerHeight="8" refX="8" refY="4" orient="auto"><path d="M0 0L9 4L0 8Z" fill="#06d6a0"/></marker>
  <marker id="arrow-orange" markerWidth="10" markerHeight="8" refX="8" refY="4" orient="auto"><path d="M0 0L9 4L0 8Z" fill="#f77f00"/></marker>
  <marker id="arrow-purple" markerWidth="10" markerHeight="8" refX="8" refY="4" orient="auto"><path d="M0 0L9 4L0 8Z" fill="#a78bfa"/></marker>
  <style>text{font-family:"Courier New","Microsoft YaHei",monospace}.title{fill:#ffffff;font-size:25px;font-weight:700;letter-spacing:2px}.subtitle{fill:#90e0ef;font-size:12px;letter-spacing:1px}.section{fill:#00b4d8;font-size:12px;font-weight:700;letter-spacing:2px}.nodeTitle{fill:#caf0f8;font-size:16px;font-weight:700}.nodeSub{fill:#90e0ef;font-size:11px}.tiny{fill:#48cae4;font-size:10px}.label{fill:#caf0f8;font-size:10px;font-weight:700}.greenText{fill:#06d6a0;font-size:10px;font-weight:700}.orangeText{fill:#f77f00;font-size:10px;font-weight:700}</style>
</defs>
<rect width="1600" height="1120" fill="#0a1628"/>
<rect width="1600" height="1120" fill="url(#grid)" opacity="0.8"/>
<rect x="40" y="26" width="1520" height="52" fill="#0d1f3c" stroke="#00b4d8" stroke-width="1"/>
<text x="68" y="58" class="title">OSD WORKFLOW / END-TO-END CONTROL PLANE</text>
<text x="1530" y="57" text-anchor="end" class="subtitle">MANIFEST v6  |  OUTCOME-DRIVEN  |  NATIVE ARCHIVE</text>
<rect x="40" y="110" width="1520" height="175" fill="#0d1f3c" fill-opacity="0.68" stroke="#00b4d8" stroke-width="1" stroke-dasharray="8 5"/>
<rect x="54" y="98" width="172" height="22" fill="#0a1628" stroke="#00b4d8" stroke-width="1"/>
<text x="66" y="113" class="section">01  ROUTE &amp; GOVERN</text>
<text x="1542" y="114" text-anchor="end" class="tiny">OSD selects depth and evidence; it does not duplicate delegated methods</text>
<rect x="40" y="320" width="1520" height="385" fill="#0d1f3c" fill-opacity="0.68" stroke="#00b4d8" stroke-width="1" stroke-dasharray="8 5"/>
<rect x="54" y="308" width="252" height="22" fill="#0a1628" stroke="#00b4d8" stroke-width="1"/>
<text x="66" y="323" class="section">02  SPECIFY / BUILD / VERIFY</text>
<text x="1542" y="324" text-anchor="end" class="tiny">OpenSpec and Superpowers are outcome-governed; policy controls command execution</text>
<rect x="40" y="745" width="1520" height="300" fill="#0d1f3c" fill-opacity="0.68" stroke="#00b4d8" stroke-width="1" stroke-dasharray="8 5"/>
<rect x="54" y="733" width="260" height="22" fill="#0a1628" stroke="#00b4d8" stroke-width="1"/>
<text x="66" y="748" class="section">03  NATIVE ARCHIVE &amp; DELIVERY</text>
<text x="1542" y="749" text-anchor="end" class="tiny">Only native archive is a mandatory state transition</text>
<rect x="85" y="165" width="175" height="82" rx="3" fill="#0d1f3c" stroke="#90e0ef" stroke-width="1.4"/>
<path d="M85 191H260" stroke="#90e0ef" stroke-width="0.9" opacity="0.7"/>
<text x="99" y="184" class="nodeTitle">USER TASK</text>
<rect x="186" y="172" width="64" height="14" rx="2" fill="#90e0ef" fill-opacity="0.16" stroke="#90e0ef" stroke-width="0.6"/>
<text x="218.0" y="183" text-anchor="middle" class="label" fill="#90e0ef">INPUT</text>
<text x="99" y="213" class="nodeSub">feature / bug / refactor</text>
<text x="99" y="230" class="nodeSub">constraints + risk</text>
<rect x="330" y="145" width="235" height="122" rx="3" fill="#0d1f3c" stroke="#00b4d8" stroke-width="1.4"/>
<path d="M330 171H565" stroke="#00b4d8" stroke-width="0.9" opacity="0.7"/>
<text x="344" y="164" class="nodeTitle">OSD CONTROLLER</text>
<rect x="490" y="152" width="65" height="14" rx="2" fill="#00b4d8" fill-opacity="0.16" stroke="#00b4d8" stroke-width="0.6"/>
<text x="522.5" y="163" text-anchor="middle" class="label" fill="#00b4d8">CONTROL</text>
<text x="344" y="193" class="nodeSub">classify task type</text>
<text x="344" y="210" class="nodeSub">select mode + strategy</text>
<text x="344" y="227" class="nodeSub">set stages + evidence</text>
<polygon points="655,165 735,205 655,245 575,205" fill="#0d1f3c" stroke="#f77f00" stroke-width="1.4"/>
<text x="655" y="201" text-anchor="middle" class="nodeTitle">RISK?</text>
<text x="655" y="217" text-anchor="middle" class="tiny">scope / uncertainty</text>
<rect x="800" y="155" width="165" height="94" rx="3" fill="#0d1f3c" stroke="#48cae4" stroke-width="1.4"/>
<path d="M800 181H965" stroke="#48cae4" stroke-width="0.9" opacity="0.7"/>
<text x="814" y="174" class="nodeTitle">LITE</text>
<rect x="891" y="162" width="64" height="14" rx="2" fill="#48cae4" fill-opacity="0.16" stroke="#48cae4" stroke-width="0.6"/>
<text x="923.0" y="173" text-anchor="middle" class="label" fill="#48cae4">LOW</text>
<text x="814" y="203" class="nodeSub">focused evidence</text>
<text x="814" y="220" class="nodeSub">single executor</text>
<rect x="1010" y="155" width="205" height="94" rx="3" fill="#0d1f3c" stroke="#00b4d8" stroke-width="1.4"/>
<path d="M1010 181H1215" stroke="#00b4d8" stroke-width="0.9" opacity="0.7"/>
<text x="1024" y="174" class="nodeTitle">STANDARD</text>
<rect x="1140" y="162" width="65" height="14" rx="2" fill="#00b4d8" fill-opacity="0.16" stroke="#00b4d8" stroke-width="0.6"/>
<text x="1172.5" y="173" text-anchor="middle" class="label" fill="#00b4d8">DEFAULT</text>
<text x="1024" y="203" class="nodeSub">approval + tasks</text>
<text x="1024" y="220" class="nodeSub">structured evidence</text>
<rect x="1260" y="155" width="205" height="94" rx="3" fill="#0d1f3c" stroke="#f77f00" stroke-width="1.4"/>
<path d="M1260 181H1465" stroke="#f77f00" stroke-width="0.9" opacity="0.7"/>
<text x="1274" y="174" class="nodeTitle">STRICT</text>
<rect x="1391" y="162" width="64" height="14" rx="2" fill="#f77f00" fill-opacity="0.16" stroke="#f77f00" stroke-width="0.6"/>
<text x="1423.0" y="173" text-anchor="middle" class="label" fill="#f77f00">HIGH</text>
<text x="1274" y="203" class="nodeSub">review + full gates</text>
<text x="1274" y="220" class="nodeSub">role completion</text>
<polyline points="260,206 330,206" fill="none" stroke="#00b4d8" stroke-width="2" marker-end="url(#arrow-cyan)"/>
<rect x="274" y="185" width="51.4" height="15" fill="#0a1628" opacity="0.96"/>
<text x="278" y="196" class="label">request</text>
<polyline points="565,206 575,206" fill="none" stroke="#00b4d8" stroke-width="2" marker-end="url(#arrow-cyan)"/>
<polyline points="735,205 770,205 770,202 800,202" fill="none" stroke="#00b4d8" stroke-width="2" marker-end="url(#arrow-cyan)"/>
<rect x="742" y="181" width="39.0" height="15" fill="#0a1628" opacity="0.96"/>
<text x="746" y="192" class="label">route</text>
<polyline points="735,205 760,205 760,264 1112,264 1112,249" fill="none" stroke="#00b4d8" stroke-width="2" marker-end="url(#arrow-cyan)"/>
<polyline points="735,205 775,205 775,278 1362,278 1362,249" fill="none" stroke="#f77f00" stroke-width="2" marker-end="url(#arrow-orange)"/>
<rect x="85" y="380" width="300" height="140" rx="3" fill="#0d1f3c" stroke="#00b4d8" stroke-width="1.4"/>
<path d="M85 406H385" stroke="#00b4d8" stroke-width="0.9" opacity="0.7"/>
<text x="99" y="399" class="nodeTitle">OPENSPEC NATIVE</text>
<rect x="296" y="387" width="79" height="14" rx="2" fill="#00b4d8" fill-opacity="0.16" stroke="#00b4d8" stroke-width="0.6"/>
<text x="335.5" y="398" text-anchor="middle" class="label" fill="#00b4d8">AUTHORITY</text>
<text x="99" y="428" class="nodeSub">proposal / spec / design</text>
<text x="99" y="445" class="nodeSub">tasks + delta specifications</text>
<text x="99" y="462" class="nodeSub">validate / apply lifecycle</text>
<rect x="455" y="380" width="300" height="140" rx="3" fill="#0d1f3c" stroke="#a78bfa" stroke-width="1.4" stroke-dasharray="6 4"/>
<path d="M455 406H755" stroke="#a78bfa" stroke-width="0.9" opacity="0.7"/>
<text x="469" y="399" class="nodeTitle">SUPERPOWERS METHOD</text>
<rect x="681" y="387" width="64" height="14" rx="2" fill="#a78bfa" fill-opacity="0.16" stroke="#a78bfa" stroke-width="0.6"/>
<text x="713.0" y="398" text-anchor="middle" class="label" fill="#a78bfa">METHOD</text>
<text x="469" y="428" class="nodeSub">plan + TDD / test-first</text>
<text x="469" y="445" class="nodeSub">implementation + debugging</text>
<text x="469" y="462" class="nodeSub">review discipline</text>
<rect x="825" y="380" width="300" height="140" rx="3" fill="#0d1f3c" stroke="#06d6a0" stroke-width="1.4"/>
<path d="M825 406H1125" stroke="#06d6a0" stroke-width="0.9" opacity="0.7"/>
<text x="839" y="399" class="nodeTitle">RUNTIME GOVERNANCE</text>
<rect x="1051" y="387" width="64" height="14" rx="2" fill="#06d6a0" fill-opacity="0.16" stroke="#06d6a0" stroke-width="0.6"/>
<text x="1083.0" y="398" text-anchor="middle" class="label" fill="#06d6a0">POLICY</text>
<text x="839" y="428" class="nodeSub">task context + ownership</text>
<text x="839" y="445" class="nodeSub">policy authorization</text>
<text x="839" y="462" class="nodeSub">fixed command evidence</text>
<rect x="1195" y="380" width="300" height="140" rx="3" fill="#0d1f3c" stroke="#00b4d8" stroke-width="1.4"/>
<path d="M1195 406H1495" stroke="#00b4d8" stroke-width="0.9" opacity="0.7"/>
<text x="1209" y="399" class="nodeTitle">OSD VERIFIER</text>
<rect x="1421" y="387" width="64" height="14" rx="2" fill="#00b4d8" fill-opacity="0.16" stroke="#00b4d8" stroke-width="0.6"/>
<text x="1453.0" y="398" text-anchor="middle" class="label" fill="#00b4d8">GATE</text>
<text x="1209" y="428" class="nodeSub">AC / task coverage</text>
<text x="1209" y="445" class="nodeSub">evidence + state gates</text>
<text x="1209" y="462" class="nodeSub">delivery contract check</text>
<rect x="150" y="575" width="270" height="86" rx="3" fill="#0d1f3c" stroke="#48cae4" stroke-width="1.4"/>
<path d="M150 601H420" stroke="#48cae4" stroke-width="0.9" opacity="0.7"/>
<text x="164" y="594" class="nodeTitle">CHANGE ARTIFACTS</text>
<rect x="346" y="582" width="64" height="14" rx="2" fill="#48cae4" fill-opacity="0.16" stroke="#48cae4" stroke-width="0.6"/>
<text x="378.0" y="593" text-anchor="middle" class="label" fill="#48cae4">ACTIVE</text>
<text x="164" y="623" class="nodeSub">spec / state / tasks / evidence</text>
<rect x="510" y="575" width="260" height="86" rx="3" fill="#0d1f3c" stroke="#a78bfa" stroke-width="1.4" stroke-dasharray="6 4"/>
<path d="M510 601H770" stroke="#a78bfa" stroke-width="0.9" opacity="0.7"/>
<text x="524" y="594" class="nodeTitle">DELIVERY EVIDENCE</text>
<rect x="695" y="582" width="65" height="14" rx="2" fill="#a78bfa" fill-opacity="0.16" stroke="#a78bfa" stroke-width="0.6"/>
<text x="727.5" y="593" text-anchor="middle" class="label" fill="#a78bfa">RESULTS</text>
<text x="524" y="623" class="nodeSub">tests / review / outcomes</text>
<rect x="875" y="565" width="285" height="106" rx="3" fill="#0d1f3c" stroke="#f77f00" stroke-width="1.4"/>
<path d="M875 591H1160" stroke="#f77f00" stroke-width="0.9" opacity="0.7"/>
<text x="889" y="584" class="nodeTitle">HUMAN CHECKPOINT</text>
<rect x="1078" y="572" width="72" height="14" rx="2" fill="#f77f00" fill-opacity="0.16" stroke="#f77f00" stroke-width="0.6"/>
<text x="1114.0" y="583" text-anchor="middle" class="label" fill="#f77f00">DECISION</text>
<text x="889" y="613" class="nodeSub">approval before standard/strict</text>
<text x="889" y="630" class="nodeSub">risk escalation is explicit</text>
<rect x="1240" y="565" width="255" height="106" rx="3" fill="#0d1f3c" stroke="#06d6a0" stroke-width="1.4"/>
<path d="M1240 591H1495" stroke="#06d6a0" stroke-width="0.9" opacity="0.7"/>
<text x="1254" y="584" class="nodeTitle">PASSING DELIVERY</text>
<rect x="1421" y="572" width="64" height="14" rx="2" fill="#06d6a0" fill-opacity="0.16" stroke="#06d6a0" stroke-width="0.6"/>
<text x="1453.0" y="583" text-anchor="middle" class="label" fill="#06d6a0">READY</text>
<text x="1254" y="613" class="nodeSub">accepted AC coverage</text>
<text x="1254" y="630" class="nodeSub">final state + traceability</text>
<polyline points="565,255 565,340 235,340 235,380" fill="none" stroke="#00b4d8" stroke-width="2" marker-end="url(#arrow-cyan)"/>
<rect x="361" y="321" width="63.800000000000004" height="15" fill="#0a1628" opacity="0.96"/>
<text x="365" y="332" class="label">delegates</text>
<polyline points="565,255 565,340 605,340 605,380" fill="none" stroke="#a78bfa" stroke-width="2" stroke-dasharray="7 4" marker-end="url(#arrow-purple)"/>
<rect x="566" y="321" width="63.800000000000004" height="15" fill="#0a1628" opacity="0.96"/>
<text x="570" y="332" class="label">delegates</text>
<polyline points="385,450 455,450" fill="none" stroke="#00b4d8" stroke-width="2" marker-end="url(#arrow-cyan)"/>
<rect x="387" y="429" width="88.60000000000001" height="15" fill="#0a1628" opacity="0.96"/>
<text x="391" y="440" class="label">accepted spec</text>
<polyline points="755,450 825,450" fill="none" stroke="#a78bfa" stroke-width="2" stroke-dasharray="7 4" marker-end="url(#arrow-purple)"/>
<rect x="756" y="429" width="119.60000000000001" height="15" fill="#0a1628" opacity="0.96"/>
<text x="760" y="440" class="label">execution evidence</text>
<polyline points="1125,450 1195,450" fill="none" stroke="#06d6a0" stroke-width="2" marker-end="url(#arrow-green)"/>
<rect x="1128" y="429" width="101.0" height="15" fill="#0a1628" opacity="0.96"/>
<text x="1132" y="440" class="label">attested checks</text>
<polyline points="235,520 235,575" fill="none" stroke="#00b4d8" stroke-width="2" marker-end="url(#arrow-cyan)"/>
<rect x="241" y="545" width="63.800000000000004" height="15" fill="#0a1628" opacity="0.96"/>
<text x="245" y="556" class="label">artifacts</text>
<polyline points="605,520 605,575" fill="none" stroke="#a78bfa" stroke-width="2" stroke-dasharray="7 4" marker-end="url(#arrow-purple)"/>
<rect x="610" y="545" width="82.4" height="15" fill="#0a1628" opacity="0.96"/>
<text x="614" y="556" class="label">work results</text>
<polyline points="975,520 1015,565" fill="none" stroke="#f77f00" stroke-width="2" marker-end="url(#arrow-orange)"/>
<rect x="996" y="537" width="57.6" height="15" fill="#0a1628" opacity="0.96"/>
<text x="1000" y="548" class="label">approval</text>
<polyline points="1320,520 1365,565" fill="none" stroke="#06d6a0" stroke-width="2" marker-end="url(#arrow-green)"/>
<rect x="1351" y="537" width="45.2" height="15" fill="#0a1628" opacity="0.96"/>
<text x="1355" y="548" class="label">passes</text>
<polyline points="420,618 510,618" fill="none" stroke="#a78bfa" stroke-width="2" stroke-dasharray="7 4" marker-end="url(#arrow-purple)"/>
<rect x="426" y="596" width="63.800000000000004" height="15" fill="#0a1628" opacity="0.96"/>
<text x="430" y="607" class="label">summaries</text>
<polyline points="1160,618 1240,618" fill="none" stroke="#f77f00" stroke-width="2" marker-end="url(#arrow-orange)"/>
<rect x="1166" y="596" width="57.6" height="15" fill="#0a1628" opacity="0.96"/>
<text x="1170" y="607" class="label">decision</text>
<polyline points="770,618 875,618" fill="none" stroke="#f77f00" stroke-width="2" marker-end="url(#arrow-orange)"/>
<rect x="150" y="830" width="310" height="120" rx="3" fill="#0d1f3c" stroke="#06d6a0" stroke-width="1.4"/>
<path d="M150 856H460" stroke="#06d6a0" stroke-width="0.9" opacity="0.7"/>
<text x="164" y="849" class="nodeTitle">ARCHIVE CONTROLLER</text>
<rect x="385" y="837" width="65" height="14" rx="2" fill="#06d6a0" fill-opacity="0.16" stroke="#06d6a0" stroke-width="0.6"/>
<text x="417.5" y="848" text-anchor="middle" class="label" fill="#06d6a0">TRUSTED</text>
<text x="164" y="878" class="nodeSub">safe feature + optional skip-specs</text>
<text x="164" y="895" class="nodeSub">runs fixed native CLI command</text>
<text x="164" y="912" class="nodeSub">writes audit record only after move</text>
<rect x="585" y="815" width="335" height="150" rx="3" fill="#0d1f3c" stroke="#06d6a0" stroke-width="1.4"/>
<path d="M585 841H920" stroke="#06d6a0" stroke-width="0.9" opacity="0.7"/>
<text x="599" y="834" class="nodeTitle">OPENSPEC ARCHIVE</text>
<rect x="810" y="822" width="100" height="14" rx="2" fill="#06d6a0" fill-opacity="0.16" stroke="#06d6a0" stroke-width="0.6"/>
<text x="860.0" y="833" text-anchor="middle" class="label" fill="#06d6a0">STATE CHANGE</text>
<text x="599" y="863" class="nodeSub">openspec archive feature --yes</text>
<text x="599" y="880" class="nodeSub">validate change + merge deltas</text>
<text x="599" y="897" class="nodeSub">move completed change to archive/</text>
<rect x="1050" y="805" width="240" height="118" rx="3" fill="#0d1f3c" stroke="#00b4d8" stroke-width="1.4"/>
<path d="M1050 831H1290" stroke="#00b4d8" stroke-width="0.9" opacity="0.7"/>
<text x="1064" y="824" class="nodeTitle">ARCHIVED HISTORY</text>
<text x="1064" y="853" class="nodeSub">source of truth: openspec/specs</text>
<text x="1064" y="870" class="nodeSub">openspec/changes/archive</text>
<text x="1064" y="887" class="nodeSub">complete source artifacts</text>
<rect x="1360" y="805" width="155" height="118" rx="3" fill="#0d1f3c" stroke="#a78bfa" stroke-width="1.4" stroke-dasharray="6 4"/>
<path d="M1360 831H1515" stroke="#a78bfa" stroke-width="0.9" opacity="0.7"/>
<text x="1374" y="824" class="nodeTitle">DELIVERY</text>
<text x="1374" y="853" class="nodeSub">supplement: knowledge/delivery</text>
<text x="1374" y="870" class="nodeSub">implementation</text>
<text x="1374" y="887" class="nodeSub">test / review / handoff</text>
<polyline points="1365,671 1365,770 305,770 305,830" fill="none" stroke="#06d6a0" stroke-width="2" marker-end="url(#arrow-green)"/>
<rect x="756" y="749" width="113.4" height="15" fill="#0a1628" opacity="0.96"/>
<text x="760" y="760" class="label">accepted delivery</text>
<polyline points="460,890 585,890" fill="none" stroke="#06d6a0" stroke-width="2" marker-end="url(#arrow-green)"/>
<rect x="474" y="868" width="94.8" height="15" fill="#0a1628" opacity="0.96"/>
<text x="478" y="879" class="label">native command</text>
<polyline points="920,890 1050,890" fill="none" stroke="#06d6a0" stroke-width="2" marker-end="url(#arrow-green)"/>
<rect x="926" y="868" width="94.8" height="15" fill="#0a1628" opacity="0.96"/>
<text x="930" y="879" class="label">moved + merged</text>
<polyline points="920,940 1360,940 1360,865" fill="none" stroke="#a78bfa" stroke-width="2" stroke-dasharray="7 4" marker-end="url(#arrow-purple)"/>
<rect x="1076" y="921" width="144.4" height="15" fill="#0a1628" opacity="0.96"/>
<text x="1080" y="932" class="label">linked delivery record</text>
<rect x="70" y="1070" width="920" height="28" fill="#0d1f3c" stroke="#00b4d8" stroke-width="0.8"/>
<line x1="90" y1="1084" x2="118" y2="1084" stroke="#00b4d8" stroke-width="2"/>
<text x="128" y="1088" class="tiny">control / artifact flow</text>
<line x1="325" y1="1084" x2="353" y2="1084" stroke="#06d6a0" stroke-width="2"/>
<text x="363" y="1088" class="tiny">trusted command / verified transition</text>
<line x1="705" y1="1084" x2="733" y2="1084" stroke="#f77f00" stroke-width="2"/>
<text x="743" y="1088" class="tiny">approval / risk gate</text>
<line x1="920" y1="1084" x2="948" y2="1084" stroke="#a78bfa" stroke-width="2" stroke-dasharray="6 4"/>
<text x="958" y="1088" class="tiny">delegated method / supplementary record</text>
<rect x="1130" y="1062" width="430" height="42" fill="#0d1f3c" stroke="#00b4d8" stroke-width="1"/>
<text x="1145" y="1078" class="tiny">OSD WORKFLOW OVERVIEW</text>
<text x="1145" y="1095" class="greenText">NATIVE ARCHIVE = ONLY MANDATORY STATE TRANSITION</text>
</svg>
